<svg width="512" height="512" viewBox="0 0 33 37" fill="none" xmlns="http://www.w3.org/2000/svg">
<path d="M29.3333 33.3H3.66667V12.95H29.3333M23.8333 0V3.7H9.16667V0H5.5V3.7H3.66667C1.63167 3.7 0 5.3465 0 7.4V33.3C0 34.2813 0.386308 35.2224 1.07394 35.9163C1.76158 36.6102 2.69421 37 3.66667 37H29.3333C30.3058 37 31.2384 36.6102 31.9261 35.9163C32.6137 35.2224 33 34.2813 33 33.3V7.4C33 6.4187 32.6137 5.47759 31.9261 4.7837C31.2384 4.08982 30.3058 3.7 29.3333 3.7H27.5V0M25.6667 20.35H16.5V29.6H25.6667V20.35Z" fill="#FFE8A3"/>
</svg>
