<svg width="512" height="512" viewBox="0 0 512 512" fill="none" xmlns="http://www.w3.org/2000/svg">
<path d="M256 512C249.828 512 243.908 509.548 239.544 505.184C235.179 500.819 232.727 494.9 232.727 488.727V418.909H139.636C127.292 418.909 115.453 414.005 106.724 405.276C97.9948 396.547 93.0909 384.708 93.0909 372.364V139.636C93.0909 127.292 97.9948 115.453 106.724 106.724C115.453 97.9948 127.292 93.0909 139.636 93.0909H465.455C477.799 93.0909 489.638 97.9948 498.367 106.724C507.096 115.453 512 127.292 512 139.636V372.364C512 384.708 507.096 396.547 498.367 405.276C489.638 414.005 477.799 418.909 465.455 418.909H370.036L283.927 505.251C279.273 509.673 273.455 512 267.636 512H256ZM279.273 372.364V444.044L350.953 372.364H465.455V139.636H139.636V372.364H279.273ZM46.5455 325.818H0V46.5455C0 34.2008 4.90388 22.3618 13.6328 13.6328C22.3618 4.90388 34.2008 0 46.5455 0H418.909V46.5455H46.5455V325.818Z" fill="#FFE8A3"/>
</svg>
