<svg width="512" height="512" viewBox="0 0 512 512" fill="none" xmlns="http://www.w3.org/2000/svg">
<path d="M511.563 180.032C499.7 359.809 274.536 503.295 264.707 509.454C262.044 511.125 259.068 512 256.044 512C253.021 512 250.044 511.125 247.381 509.454C237.256 503.135 4.35116e-06 352.022 4.35116e-06 165.366C-0.00635614 135.417 6.96067 106.029 20.1569 80.3402C33.3532 54.6515 52.2831 33.627 74.9246 19.5124C97.5661 5.39778 123.069 -1.27679 148.709 0.201592C174.349 1.67997 199.163 11.2558 220.502 27.9062C221.632 28.7809 222.582 29.9383 223.282 31.2943C223.982 32.6503 224.414 34.1711 224.547 35.7462C224.681 37.3213 224.512 38.9114 224.054 40.401C223.595 41.8907 222.858 43.2426 221.896 44.3587L191.359 80.0368C187.932 84.037 186.007 89.4608 186.007 95.116C186.007 100.771 187.932 106.195 191.359 110.195L265.713 196.937L217.142 253.361C215.372 255.322 213.957 257.677 212.98 260.286C212.003 262.895 211.483 265.706 211.452 268.553C211.421 271.4 211.879 274.226 212.798 276.864C213.718 279.501 215.08 281.897 216.806 283.911C218.532 285.924 220.586 287.514 222.847 288.587C225.108 289.659 227.53 290.193 229.97 290.157C232.411 290.12 234.82 289.514 237.057 288.374C239.293 287.234 241.312 285.584 242.993 283.519L304.433 211.87C307.859 207.87 309.784 202.446 309.784 196.791C309.784 191.135 307.859 185.712 304.433 181.711L230.17 95.0493L270.101 48.4651C283.341 32.941 299.106 20.6602 316.471 12.3445C333.836 4.02871 352.45 -0.154378 371.221 0.0409962C454.237 0.654297 517.917 83.4766 511.563 180.032Z" fill="#FFE8A3"/>
</svg>
