<svg width="512" height="512" viewBox="0 0 512 512" fill="none" xmlns="http://www.w3.org/2000/svg">
<path d="M51.2 162.305C51.2 177.061 53.4443 191.078 57.9328 204.357C62.4213 217.637 70.4171 232.766 81.92 249.744C93.4229 266.722 108.996 287.005 128.64 310.594C148.284 334.182 173.244 363.692 203.52 399.124C205.227 401.091 207.044 401.711 208.973 400.983C210.901 400.255 212.07 398.652 212.48 396.173L224.64 265.591C202.453 265.591 184.747 255.626 171.52 235.697C158.293 215.768 154.667 193.763 160.64 169.683L184.96 71.562C178.133 67.6273 170.991 64.5582 163.533 62.3548C156.075 60.1514 148.497 59.0398 140.8 59.0202C116.053 59.0202 94.9333 69.1028 77.44 89.268C59.9467 109.433 51.2 133.779 51.2 162.305ZM460.8 162.305C460.8 133.779 452.053 109.433 434.56 89.268C417.067 69.1028 395.947 59.0202 371.2 59.0202C366.507 59.0202 361.813 59.394 357.12 60.1416C352.427 60.8891 347.733 62.2368 343.04 64.1844L327.68 118.04C346.88 123.942 361.062 137.104 370.227 157.525C379.392 177.946 380.996 199.213 375.04 221.326L341.76 350.432C340.907 352.891 341.658 354.987 344.013 356.718C346.368 358.449 348.604 358.075 350.72 355.597C374.187 328.054 393.173 305.065 407.68 286.631C422.187 268.198 433.391 251.967 441.293 237.94C449.195 223.913 454.417 211.243 456.96 199.931C459.503 188.619 460.783 176.077 460.8 162.305ZM256.64 512C250.667 512 244.804 510.77 239.053 508.311C233.301 505.852 228.07 502.163 223.36 497.245C176.853 450.029 139.093 410.308 110.08 378.083C81.0667 345.858 58.3509 317.588 41.9328 293.271C25.5147 268.955 14.4213 246.694 8.6528 226.49C2.88427 206.285 0 184.891 0 162.305C0 117.057 13.6533 78.6936 40.96 47.2161C68.2667 15.7387 101.547 0 140.8 0C168.96 0 193.707 6.26598 215.04 18.7979C236.373 31.3299 244.053 49.4097 238.08 73.0375L214.4 168.945C212.267 178.782 213.658 187.517 218.573 195.15C223.488 202.783 230.204 206.59 238.72 206.571H281.6L264.96 393.96C264.533 397.894 265.924 400.108 269.133 400.599C272.341 401.091 274.364 399.616 275.2 396.173L322.56 215.424C325.12 205.587 323.84 196.734 318.72 188.865C313.6 180.995 306.773 177.061 298.24 177.061H256L295.04 43.5274C299.733 26.3132 309.547 14.755 324.48 8.85302C339.413 2.95101 354.987 0 371.2 0C410.453 0 443.733 15.7387 471.04 47.2161C498.347 78.6936 512 117.057 512 162.305C512 183.946 508.587 205.341 501.76 226.49C494.933 247.639 483.089 271.001 466.227 296.576C449.365 322.152 426.752 351.052 398.387 383.277C370.022 415.502 334.08 453.491 290.56 497.245C285.867 502.163 280.533 505.852 274.56 508.311C268.587 510.77 262.613 512 256.64 512Z" fill="#FFE8A3"/>
</svg>
