<svg width="512" height="512" viewBox="0 0 512 512" fill="none" xmlns="http://www.w3.org/2000/svg">
<path d="M0 512V391.111L375.467 16.3556C381.155 11.1407 387.442 7.11111 394.325 4.26667C401.209 1.42222 408.434 0 416 0C423.566 0 430.914 1.42222 438.044 4.26667C445.174 7.11111 451.337 11.3778 456.533 17.0667L495.644 56.8889C501.333 62.1037 505.486 68.2667 508.103 75.3778C510.72 82.4889 512.019 89.6 512 96.7111C512 104.296 510.701 111.531 508.103 118.414C505.505 125.298 501.352 131.575 495.644 137.244L120.889 512H0ZM415.289 136.533L455.111 96.7111L415.289 56.8889L375.467 96.7111L415.289 136.533Z" fill="black"/>
</svg>
