<svg width="512" height="512" viewBox="0 0 36 36" fill="none" xmlns="http://www.w3.org/2000/svg">
<path d="M18 30L26 22L23.2 19.2L20 22.4V14H16V22.4L12.8 19.2L9.99999 22L18 30ZM4 10V32H32V10H4ZM4 36C2.9 36 1.95867 35.6087 1.176 34.826C0.393333 34.0433 0.00133333 33.1013 0 32V7.05001C0 6.58334 0.0753331 6.13334 0.226 5.70001C0.376666 5.26667 0.601333 4.86668 0.9 4.50001L3.4 1.45001C3.76666 0.983343 4.22466 0.624677 4.774 0.37401C5.32333 0.123344 5.89866 -0.00132275 6.5 1.0582e-05H29.5C30.1 1.0582e-05 30.6753 0.125344 31.226 0.37601C31.7767 0.626677 32.2346 0.984677 32.6 1.45001L35.1 4.50001C35.4 4.86668 35.6253 5.26667 35.776 5.70001C35.9266 6.13334 36.0013 6.58334 36 7.05001V32C36 33.1 35.6086 34.042 34.826 34.826C34.0433 35.61 33.1013 36.0013 32 36H4ZM4.8 6.00001H31.2L29.5 4.00001H6.5L4.8 6.00001Z" fill="#FFE8A3"/>
</svg>
